<?xml version="1.0" encoding="UTF-8"?>
<!-- Generated by Pixelmator Pro 2.3.8 -->
<svg width="555" height="210" viewBox="0 0 555 210" xmlns="http://www.w3.org/2000/svg" xmlns:xlink="http://www.w3.org/1999/xlink">
    <filter id="filter1" x="0" y="0" width="555" height="210" filterUnits="userSpaceOnUse" primitiveUnits="userSpaceOnUse" color-interpolation-filters="sRGB">
        <feGaussianBlur stdDeviation="15"/>
    </filter>
    <path id="path7" fill="#000000" stroke="#000000" stroke-width="10" stroke-linecap="round" stroke-linejoin="round" filter="url(#filter1)" d="M 177.51001 18.369995 C 164.600006 18.369995 154.089996 28.869995 154.089996 41.790009 L 154.089996 51.230011 L 154.089996 66.76001 L 154.089996 111.549988 L 173.079987 111.549988 L 173.079987 66.76001 L 184.790009 66.76001 L 184.790009 51.230011 L 173.079987 51.230011 L 173.079987 41.790009 C 173.079987 39.339996 175.070007 37.350006 177.51001 37.350006 C 178.679993 37.350006 179.540009 37.790009 180.059998 38.160004 L 191.019989 22.649994 C 187.049988 19.850006 182.380005 18.369995 177.51001 18.369995 Z M 216.299988 18.369995 C 203.390015 18.369995 192.890015 28.869995 192.890015 41.790009 L 192.890015 111.549988 L 211.869995 111.549988 L 211.869995 66.76001 L 223.589996 66.76001 L 223.589996 51.230011 L 211.869995 51.230011 L 211.869995 41.790009 C 211.869995 39.339996 213.859985 37.350006 216.299988 37.350006 C 217.470001 37.350006 218.339996 37.790009 218.859985 38.160004 L 229.809998 22.649994 C 225.839996 19.850006 221.170013 18.369995 216.299988 18.369995 Z M 241.059998 21.829987 C 235.17334 21.831665 230.401642 26.603333 230.399994 32.48999 C 230.401642 38.376678 235.17334 43.148346 241.059998 43.149994 C 246.946655 43.148346 251.718353 38.376678 251.720001 32.48999 C 251.718353 26.603333 246.946655 21.831665 241.059998 21.829987 Z M 335.909973 21.829987 C 330.023315 21.831665 325.251648 26.603333 325.25 32.48999 C 325.251648 38.376678 330.023315 43.148346 335.909973 43.149994 C 338.738708 43.151855 341.452209 42.029663 343.453369 40.030426 C 345.454468 38.031158 346.579224 35.318695 346.580017 32.48999 C 346.579224 29.661316 345.454468 26.948822 343.453369 24.949585 C 341.452209 22.950317 338.738708 21.828156 335.909973 21.829987 Z M 498.080017 29.640015 L 498.080017 51.290009 L 498.080017 66.820007 L 498.080017 89.549988 C 498.080017 102.459991 508.580017 112.959991 521.48999 112.959991 C 526.359985 112.959991 531.030029 111.480011 535 108.679993 L 524.039978 93.179993 C 523.52002 93.549988 522.659973 93.980011 521.48999 93.980011 C 519.049988 93.980011 517.059998 91.98999 517.059998 89.549988 L 517.059998 66.820007 L 531.109985 66.820007 L 531.109985 51.290009 L 517.059998 51.290009 L 517.059998 29.640015 L 498.080017 29.640015 Z M 48.059998 49.5 C 39.48999 49.5 25.23999 54.230011 25.23999 68.73999 C 25.23999 90.420013 53.519989 87.480011 53.519989 94.100006 C 53.519989 95.73999 51.859985 97.619995 48.059998 97.619995 C 44.26001 97.619995 35.769989 94.619995 32.160004 90.640015 L 23 103.690002 C 23 103.690002 32.200012 112.829987 48.320007 112.829987 C 64.440002 112.829987 72.450012 103.369995 72.450012 93.380005 C 72.450012 72.589996 43.75 74.609985 43.75 67.890015 C 43.75 66.959991 44.149994 64.790009 47.940002 64.790009 C 51.730011 64.790009 55.450012 65.859985 61.769989 71.100006 L 70.929993 57.209991 C 63.820007 52.399994 58.01001 49.5 48.059998 49.5 Z M 291.710022 49.5 C 274.230011 49.5 260.019989 63.720001 260.019989 81.200012 C 260.019989 98.679993 274.230011 112.899994 291.710022 112.899994 C 301.690002 112.899994 311.200012 108.119995 317.159973 100.109985 L 301.929993 88.779999 C 299.5 92.040009 295.77002 93.920013 291.710022 93.920013 C 284.700012 93.920013 279 88.209991 279 81.200012 C 279 74.190002 284.700012 68.48999 291.710022 68.48999 C 295.919983 68.48999 299.849976 70.570007 302.219971 74.040009 L 317.900024 63.339996 C 311.97998 54.679993 302.190002 49.5 291.710022 49.5 Z M 456.789978 49.5 C 439.669983 49.5 425.72998 63.440002 425.72998 80.559998 L 425.72998 111.549988 L 444.719971 111.549988 L 444.719971 80.559998 C 444.719971 73.899994 450.130005 68.48999 456.789978 68.48999 C 463.440002 68.48999 468.859985 73.899994 468.859985 80.559998 L 468.859985 111.549988 L 487.840027 111.549988 L 487.840027 80.559998 C 487.840027 63.440002 473.909973 49.5 456.789978 49.5 Z M 386.690002 49.51001 C 383.049988 49.48999 379.349976 50.109985 375.73999 51.429993 C 361.26001 56.690002 352.940002 71.459991 355.26001 86.130005 C 355.359985 86.790009 355.5 87.440002 355.650024 88.100006 C 355.719971 88.429993 355.799988 88.76001 355.880005 89.100006 C 356.130005 90.089996 356.440002 91.070007 356.789978 92.049988 C 357.130005 92.98999 357.52002 93.899994 357.940002 94.779999 L 357.969971 94.839996 L 357.969971 94.850006 C 357.98999 94.880005 358 94.910004 358.02002 94.940002 C 358.039978 94.980011 358.059998 95.029999 358.080017 95.070007 C 358.169983 95.25 358.26001 95.429993 358.349976 95.600006 C 358.669983 96.23999 359 96.869995 359.359985 97.480011 C 367.01001 110.25 382.919983 116.26001 397.419983 110.980011 C 406.73999 107.579987 413.809998 100.230011 416.820007 90.730011 L 398.700012 85.019989 C 397.5 88.820007 394.659973 91.790009 390.929993 93.130005 C 386.369995 94.809998 381.469971 93.690002 378.090027 90.670013 L 399.159973 83 L 417.710022 76.26001 L 417.710022 76.23999 L 417.869995 76.190002 C 417.640015 74.720001 417.280029 73.25 416.830017 71.799988 C 416.820007 71.75 416.799988 71.700012 416.780029 71.649994 C 416.650024 71.220001 416.51001 70.790009 416.359985 70.369995 C 416.22998 70.01001 416.090027 69.649994 415.940002 69.299988 C 415.890015 69.179993 415.840027 69.049988 415.780029 68.920013 C 415.780029 68.910004 415.77002 68.899994 415.77002 68.899994 C 415.179993 67.470001 414.47998 66.119995 413.719971 64.850006 C 407.97998 55.299988 397.609985 49.559998 386.690002 49.51001 Z M 80.859985 50.790009 L 80.859985 81.779999 C 80.859985 98.899994 94.790009 112.829987 111.910004 112.829987 C 129.029999 112.829987 142.959991 98.899994 142.959991 81.779999 L 142.959991 50.790009 L 123.980011 50.790009 L 123.980011 81.779999 C 123.980011 88.429993 118.570007 93.850006 111.910004 93.850006 C 105.25 93.850006 99.839996 88.429993 99.839996 81.779999 L 99.839996 50.790009 L 80.859985 50.790009 Z M 231.570007 50.899994 L 231.570007 111.640015 L 250.549988 111.640015 L 250.549988 50.899994 L 231.570007 50.899994 Z M 326.419983 50.899994 L 326.419983 111.640015 L 345.409973 111.640015 L 345.409973 50.899994 L 326.419983 50.899994 Z M 386.5 68.48999 C 389.630005 68.480011 392.659973 69.640015 394.969971 71.670013 L 374 79.299988 C 374.690002 74.859985 377.710022 70.910004 382.22998 69.25 C 383.640015 68.73999 385.080017 68.5 386.5 68.48999 Z M 358.97998 148.170013 C 358.409973 148.170013 358.070007 148.51001 357.960022 149.079987 L 351.059998 187.809998 C 351.01001 188.440002 351.349976 188.890015 351.969971 188.890015 L 358.580017 188.890015 C 359.150024 188.890015 359.549988 188.549988 359.609985 187.980011 L 360.969971 180.410004 L 363.47998 178.019989 L 367.75 188.100006 C 367.919983 188.670013 368.320007 188.890015 368.890015 188.890015 L 376.119995 188.890015 C 376.859985 188.890015 377.150024 188.440002 376.859985 187.75 L 369.52002 171.920013 L 380.679993 160.470001 C 381.25 159.850006 381.02002 159.279999 380.169983 159.279999 L 372.359985 159.279999 C 371.849976 159.279999 371.450012 159.390015 371.169983 159.790009 L 363.080017 168.619995 L 366.5 149.26001 C 366.609985 148.630005 366.27002 148.170013 365.590027 148.170013 L 358.97998 148.170013 Z M 225.200012 152.160004 C 224.570007 152.160004 224.230011 152.5 224.119995 153.070007 L 219.850006 177.5 C 218.359985 185.820007 222.410004 189.630005 228.730011 189.630005 C 229.700012 189.630005 230.779999 189.519989 231.630005 189.350006 C 232.200012 189.290009 232.48999 188.950012 232.600006 188.380005 L 233.51001 183.079987 C 233.679993 182.339996 233.290009 182.059998 232.600006 182.119995 L 231.059998 182.119995 C 228.730011 182.119995 227.820007 180.75 228.279999 178.190002 L 230.209991 167.200012 L 234.880005 167.200012 C 235.51001 167.200012 235.850006 166.910004 235.959991 166.279999 L 236.880005 161.040009 C 236.98999 160.420013 236.649994 159.959991 235.959991 159.959991 L 231.410004 159.959991 L 231.75 153.190002 C 231.809998 152.559998 231.459991 152.160004 230.779999 152.160004 L 225.200012 152.160004 Z M 163.869995 158.480011 C 160.170013 158.480011 155.890015 159.390015 152.309998 160.76001 C 151.790009 160.98999 151.570007 161.329987 151.450012 161.790009 L 146.779999 187.809998 C 146.670013 188.440002 147.01001 188.890015 147.690002 188.890015 L 154.299988 188.890015 C 154.929993 188.890015 155.269989 188.609985 155.380005 187.980011 L 159.140015 166.619995 C 159.98999 166.230011 161.420013 165.940002 162.790009 165.940002 C 165.799988 165.940002 167.059998 167.589996 166.369995 171.179993 L 163.529999 187.809998 C 163.470001 188.440002 163.809998 188.890015 164.440002 188.890015 L 170.98999 188.890015 C 171.609985 188.890015 171.950012 188.549988 172.070007 187.980011 L 174.920013 172.040009 C 176.339996 163.950012 172.470001 158.480011 163.869995 158.480011 Z M 199.950012 158.480011 C 193.059998 158.480011 187.140015 161.959991 185.769989 169.420013 L 184.290009 177.670013 C 182.980011 185.079987 188.160004 189.630005 195.619995 189.630005 C 200.579987 189.630005 204.450012 188.269989 207.529999 186.160004 C 208.040009 185.880005 208.100006 185.359985 207.869995 184.790009 L 205.540009 180.410004 C 205.25 179.779999 204.790009 179.720001 204.220001 180.119995 C 201.950012 181.48999 199.329987 182.399994 196.820007 182.399994 C 193.690002 182.399994 192.320007 180.920013 192.890015 177.899994 L 193.059998 177.100006 L 208.890015 177.100006 C 209.459991 177.100006 209.809998 176.820007 209.920013 176.25 L 210.890015 170.730011 C 212.429993 162.350006 207.23999 158.480011 199.950012 158.480011 Z M 306.409973 158.480011 C 298.5 158.480011 292.919983 162.75 291.659973 169.640015 L 290.460022 176.709991 C 289.150024 183.940002 293.77002 189.630005 301.400024 189.630005 C 309.77002 189.630005 314.950012 185.529999 316.26001 178.359985 L 317.570007 171.179993 C 318.77002 164.230011 314.210022 158.480011 306.409973 158.480011 Z M 341.150024 158.480011 C 337.559998 158.480011 333.909973 159.339996 330.609985 160.869995 C 330.159973 161.100006 329.869995 161.440002 329.76001 161.959991 L 325.26001 187.809998 C 325.140015 188.440002 325.47998 188.890015 326.169983 188.890015 L 332.780029 188.890015 C 333.340027 188.890015 333.690002 188.549988 333.799988 187.980011 L 337.5 166.970001 C 338.469971 166.570007 339.719971 166.279999 341.200012 166.279999 C 342.400024 166.279999 343.539978 166.399994 344.51001 166.570007 C 345.130005 166.630005 345.590027 166.339996 345.650024 165.709991 L 346.669983 160.130005 C 346.789978 159.559998 346.5 159.109985 345.869995 158.98999 C 344.219971 158.649994 342.679993 158.480011 341.150024 158.480011 Z M 400.710022 158.480011 C 393.820007 158.480011 389.039978 160.929993 387.840027 166.679993 C 386.590027 172.829987 391.030029 176.190002 396.609985 177.329987 C 398.890015 177.839996 400.880005 178.299988 400.47998 180.070007 C 400.200012 181.380005 398.830017 182.230011 396.099976 182.230011 C 393.419983 182.230011 390.909973 181.429993 388.690002 179.779999 C 388.179993 179.440002 387.72998 179.5 387.330017 180.01001 L 384.080017 184.450012 C 383.73999 184.910004 383.73999 185.420013 384.25 185.820007 C 387.380005 188.380005 391.090027 189.630005 395.809998 189.630005 C 402.929993 189.630005 408 186.839996 409.140015 180.809998 C 410.330017 174.140015 404.869995 171.410004 400.47998 170.440002 C 397.75 169.809998 395.929993 169.299988 396.27002 167.589996 C 396.5 166.170013 397.809998 165.709991 399.909973 165.709991 C 402.309998 165.709991 404.469971 166.230011 406.22998 167.25 C 406.799988 167.540009 407.26001 167.480011 407.599976 166.970001 L 410.960022 162.470001 C 411.359985 161.950012 411.299988 161.440002 410.72998 161.100006 C 407.659973 159.339996 404.640015 158.480011 400.710022 158.480011 Z M 245.579987 159.279999 C 244.950012 159.279999 244.559998 159.619995 244.609985 160.299988 L 247.119995 187.980011 C 247.179993 188.609985 247.570007 188.890015 248.140015 188.890015 L 255.380005 188.890015 C 255.890015 188.890015 256.290009 188.609985 256.459991 188.100006 L 260.5 178.470001 C 261.299988 176.480011 262.839996 172.149994 263.459991 170.100006 L 263.630005 170.100006 C 263.690002 172.089996 263.75 175.850006 263.799988 178.470001 L 264.200012 187.929993 C 264.26001 188.549988 264.600006 188.890015 265.230011 188.890015 L 272.350006 188.890015 C 272.920013 188.890015 273.320007 188.609985 273.540009 188.149994 L 285.72998 160.359985 C 286.070007 159.679993 285.72998 159.279999 284.98999 159.279999 L 278.440002 159.279999 C 277.929993 159.279999 277.529999 159.51001 277.299988 160.019989 L 273.829987 169.470001 C 272.859985 172.149994 271.209991 176.589996 270.410004 179.149994 L 270.179993 179.149994 C 270.23999 176.309998 270.130005 172.609985 270.01001 169.700012 L 269.559998 160.589996 C 269.559998 159.959991 269.220001 159.679993 268.589996 159.679993 L 261.809998 159.679993 C 261.299988 159.679993 260.899994 159.910004 260.670013 160.420013 L 257.029999 169.640015 C 256 172.26001 254.640015 176.25 253.720001 179.149994 L 253.5 179.149994 C 253.5 176.589996 253.440002 172.089996 253.380005 169.589996 L 253.149994 160.25 C 253.149994 159.559998 252.76001 159.279999 252.130005 159.279999 L 245.579987 159.279999 Z M 199.209991 165.709991 C 202.119995 165.709991 203.089996 167.709991 202.690002 169.980011 L 202.399994 171.410004 L 194.089996 171.410004 L 194.369995 169.869995 C 194.890015 167.190002 196.76001 165.709991 199.209991 165.709991 Z M 305.440002 165.940002 C 308.179993 165.940002 309.369995 168.049988 308.919983 170.609985 L 307.609985 177.899994 C 307.150024 180.579987 305.330017 182.170013 302.369995 182.170013 C 299.690002 182.170013 298.5 180.350006 299.01001 177.559998 L 300.320007 170.209991 C 300.77002 167.649994 302.710022 165.940002 305.440002 165.940002 Z"/>
    <path id="path9" fill="none" stroke="#ffffff" stroke-width="30" stroke-linecap="round" stroke-linejoin="round" d="M 177.51001 18.369995 C 164.600006 18.369995 154.089996 28.869995 154.089996 41.790009 L 154.089996 51.230011 L 154.089996 66.76001 L 154.089996 111.549988 L 173.079987 111.549988 L 173.079987 66.76001 L 184.790009 66.76001 L 184.790009 51.230011 L 173.079987 51.230011 L 173.079987 41.790009 C 173.079987 39.339996 175.070007 37.350006 177.51001 37.350006 C 178.679993 37.350006 179.540009 37.790009 180.059998 38.160004 L 191.019989 22.649994 C 187.049988 19.850006 182.380005 18.369995 177.51001 18.369995 Z M 216.299988 18.369995 C 203.390015 18.369995 192.890015 28.869995 192.890015 41.790009 L 192.890015 111.549988 L 211.869995 111.549988 L 211.869995 66.76001 L 223.589996 66.76001 L 223.589996 51.230011 L 211.869995 51.230011 L 211.869995 41.790009 C 211.869995 39.339996 213.859985 37.350006 216.299988 37.350006 C 217.470001 37.350006 218.339996 37.790009 218.859985 38.160004 L 229.809998 22.649994 C 225.839996 19.850006 221.170013 18.369995 216.299988 18.369995 Z M 241.059998 21.829987 C 235.17334 21.831665 230.401642 26.603333 230.399994 32.48999 C 230.401642 38.376678 235.17334 43.148346 241.059998 43.149994 C 246.946655 43.148346 251.718353 38.376678 251.720001 32.48999 C 251.718353 26.603333 246.946655 21.831665 241.059998 21.829987 Z M 335.909973 21.829987 C 330.023315 21.831665 325.251648 26.603333 325.25 32.48999 C 325.251648 38.376678 330.023315 43.148346 335.909973 43.149994 C 338.738708 43.151855 341.452209 42.029663 343.453369 40.030426 C 345.454468 38.031158 346.579224 35.318695 346.580017 32.48999 C 346.579224 29.661316 345.454468 26.948822 343.453369 24.949585 C 341.452209 22.950317 338.738708 21.828156 335.909973 21.829987 Z M 498.080017 29.640015 L 498.080017 51.290009 L 498.080017 66.820007 L 498.080017 89.549988 C 498.080017 102.459991 508.580017 112.959991 521.48999 112.959991 C 526.359985 112.959991 531.030029 111.480011 535 108.679993 L 524.039978 93.179993 C 523.52002 93.549988 522.659973 93.980011 521.48999 93.980011 C 519.049988 93.980011 517.059998 91.98999 517.059998 89.549988 L 517.059998 66.820007 L 531.109985 66.820007 L 531.109985 51.290009 L 517.059998 51.290009 L 517.059998 29.640015 L 498.080017 29.640015 Z M 48.059998 49.5 C 39.48999 49.5 25.23999 54.230011 25.23999 68.73999 C 25.23999 90.420013 53.519989 87.480011 53.519989 94.100006 C 53.519989 95.73999 51.859985 97.619995 48.059998 97.619995 C 44.26001 97.619995 35.769989 94.619995 32.160004 90.640015 L 23 103.690002 C 23 103.690002 32.200012 112.829987 48.320007 112.829987 C 64.440002 112.829987 72.450012 103.369995 72.450012 93.380005 C 72.450012 72.589996 43.75 74.609985 43.75 67.890015 C 43.75 66.959991 44.149994 64.790009 47.940002 64.790009 C 51.730011 64.790009 55.450012 65.859985 61.769989 71.100006 L 70.929993 57.209991 C 63.820007 52.399994 58.01001 49.5 48.059998 49.5 Z M 291.710022 49.5 C 274.230011 49.5 260.019989 63.720001 260.019989 81.200012 C 260.019989 98.679993 274.230011 112.899994 291.710022 112.899994 C 301.690002 112.899994 311.200012 108.119995 317.159973 100.109985 L 301.929993 88.779999 C 299.5 92.040009 295.77002 93.920013 291.710022 93.920013 C 284.700012 93.920013 279 88.209991 279 81.200012 C 279 74.190002 284.700012 68.48999 291.710022 68.48999 C 295.919983 68.48999 299.849976 70.570007 302.219971 74.040009 L 317.900024 63.339996 C 311.97998 54.679993 302.190002 49.5 291.710022 49.5 Z M 456.789978 49.5 C 439.669983 49.5 425.72998 63.440002 425.72998 80.559998 L 425.72998 111.549988 L 444.719971 111.549988 L 444.719971 80.559998 C 444.719971 73.899994 450.130005 68.48999 456.789978 68.48999 C 463.440002 68.48999 468.859985 73.899994 468.859985 80.559998 L 468.859985 111.549988 L 487.840027 111.549988 L 487.840027 80.559998 C 487.840027 63.440002 473.909973 49.5 456.789978 49.5 Z M 386.690002 49.51001 C 383.049988 49.48999 379.349976 50.109985 375.73999 51.429993 C 361.26001 56.690002 352.940002 71.459991 355.26001 86.130005 C 355.359985 86.790009 355.5 87.440002 355.650024 88.100006 C 355.719971 88.429993 355.799988 88.76001 355.880005 89.100006 C 356.130005 90.089996 356.440002 91.070007 356.789978 92.049988 C 357.130005 92.98999 357.52002 93.899994 357.940002 94.779999 L 357.969971 94.839996 L 357.969971 94.850006 C 357.98999 94.880005 358 94.910004 358.02002 94.940002 C 358.039978 94.980011 358.059998 95.029999 358.080017 95.070007 C 358.169983 95.25 358.26001 95.429993 358.349976 95.600006 C 358.669983 96.23999 359 96.869995 359.359985 97.480011 C 367.01001 110.25 382.919983 116.26001 397.419983 110.980011 C 406.73999 107.579987 413.809998 100.230011 416.820007 90.730011 L 398.700012 85.019989 C 397.5 88.820007 394.659973 91.790009 390.929993 93.130005 C 386.369995 94.809998 381.469971 93.690002 378.090027 90.670013 L 399.159973 83 L 417.710022 76.26001 L 417.710022 76.23999 L 417.869995 76.190002 C 417.640015 74.720001 417.280029 73.25 416.830017 71.799988 C 416.820007 71.75 416.799988 71.700012 416.780029 71.649994 C 416.650024 71.220001 416.51001 70.790009 416.359985 70.369995 C 416.22998 70.01001 416.090027 69.649994 415.940002 69.299988 C 415.890015 69.179993 415.840027 69.049988 415.780029 68.920013 C 415.780029 68.910004 415.77002 68.899994 415.77002 68.899994 C 415.179993 67.470001 414.47998 66.119995 413.719971 64.850006 C 407.97998 55.299988 397.609985 49.559998 386.690002 49.51001 Z M 80.859985 50.790009 L 80.859985 81.779999 C 80.859985 98.899994 94.790009 112.829987 111.910004 112.829987 C 129.029999 112.829987 142.959991 98.899994 142.959991 81.779999 L 142.959991 50.790009 L 123.980011 50.790009 L 123.980011 81.779999 C 123.980011 88.429993 118.570007 93.850006 111.910004 93.850006 C 105.25 93.850006 99.839996 88.429993 99.839996 81.779999 L 99.839996 50.790009 L 80.859985 50.790009 Z M 231.570007 50.899994 L 231.570007 111.640015 L 250.549988 111.640015 L 250.549988 50.899994 L 231.570007 50.899994 Z M 326.419983 50.899994 L 326.419983 111.640015 L 345.409973 111.640015 L 345.409973 50.899994 L 326.419983 50.899994 Z M 386.5 68.48999 C 389.630005 68.480011 392.659973 69.640015 394.969971 71.670013 L 374 79.299988 C 374.690002 74.859985 377.710022 70.910004 382.22998 69.25 C 383.640015 68.73999 385.080017 68.5 386.5 68.48999 Z M 358.97998 148.170013 C 358.409973 148.170013 358.070007 148.51001 357.960022 149.079987 L 351.059998 187.809998 C 351.01001 188.440002 351.349976 188.890015 351.969971 188.890015 L 358.580017 188.890015 C 359.150024 188.890015 359.549988 188.549988 359.609985 187.980011 L 360.969971 180.410004 L 363.47998 178.019989 L 367.75 188.100006 C 367.919983 188.670013 368.320007 188.890015 368.890015 188.890015 L 376.119995 188.890015 C 376.859985 188.890015 377.150024 188.440002 376.859985 187.75 L 369.52002 171.920013 L 380.679993 160.470001 C 381.25 159.850006 381.02002 159.279999 380.169983 159.279999 L 372.359985 159.279999 C 371.849976 159.279999 371.450012 159.390015 371.169983 159.790009 L 363.080017 168.619995 L 366.5 149.26001 C 366.609985 148.630005 366.27002 148.170013 365.590027 148.170013 L 358.97998 148.170013 Z M 225.200012 152.160004 C 224.570007 152.160004 224.230011 152.5 224.119995 153.070007 L 219.850006 177.5 C 218.359985 185.820007 222.410004 189.630005 228.730011 189.630005 C 229.700012 189.630005 230.779999 189.519989 231.630005 189.350006 C 232.200012 189.290009 232.48999 188.950012 232.600006 188.380005 L 233.51001 183.079987 C 233.679993 182.339996 233.290009 182.059998 232.600006 182.119995 L 231.059998 182.119995 C 228.730011 182.119995 227.820007 180.75 228.279999 178.190002 L 230.209991 167.200012 L 234.880005 167.200012 C 235.51001 167.200012 235.850006 166.910004 235.959991 166.279999 L 236.880005 161.040009 C 236.98999 160.420013 236.649994 159.959991 235.959991 159.959991 L 231.410004 159.959991 L 231.75 153.190002 C 231.809998 152.559998 231.459991 152.160004 230.779999 152.160004 L 225.200012 152.160004 Z M 163.869995 158.480011 C 160.170013 158.480011 155.890015 159.390015 152.309998 160.76001 C 151.790009 160.98999 151.570007 161.329987 151.450012 161.790009 L 146.779999 187.809998 C 146.670013 188.440002 147.01001 188.890015 147.690002 188.890015 L 154.299988 188.890015 C 154.929993 188.890015 155.269989 188.609985 155.380005 187.980011 L 159.140015 166.619995 C 159.98999 166.230011 161.420013 165.940002 162.790009 165.940002 C 165.799988 165.940002 167.059998 167.589996 166.369995 171.179993 L 163.529999 187.809998 C 163.470001 188.440002 163.809998 188.890015 164.440002 188.890015 L 170.98999 188.890015 C 171.609985 188.890015 171.950012 188.549988 172.070007 187.980011 L 174.920013 172.040009 C 176.339996 163.950012 172.470001 158.480011 163.869995 158.480011 Z M 199.950012 158.480011 C 193.059998 158.480011 187.140015 161.959991 185.769989 169.420013 L 184.290009 177.670013 C 182.980011 185.079987 188.160004 189.630005 195.619995 189.630005 C 200.579987 189.630005 204.450012 188.269989 207.529999 186.160004 C 208.040009 185.880005 208.100006 185.359985 207.869995 184.790009 L 205.540009 180.410004 C 205.25 179.779999 204.790009 179.720001 204.220001 180.119995 C 201.950012 181.48999 199.329987 182.399994 196.820007 182.399994 C 193.690002 182.399994 192.320007 180.920013 192.890015 177.899994 L 193.059998 177.100006 L 208.890015 177.100006 C 209.459991 177.100006 209.809998 176.820007 209.920013 176.25 L 210.890015 170.730011 C 212.429993 162.350006 207.23999 158.480011 199.950012 158.480011 Z M 306.409973 158.480011 C 298.5 158.480011 292.919983 162.75 291.659973 169.640015 L 290.460022 176.709991 C 289.150024 183.940002 293.77002 189.630005 301.400024 189.630005 C 309.77002 189.630005 314.950012 185.529999 316.26001 178.359985 L 317.570007 171.179993 C 318.77002 164.230011 314.210022 158.480011 306.409973 158.480011 Z M 341.150024 158.480011 C 337.559998 158.480011 333.909973 159.339996 330.609985 160.869995 C 330.159973 161.100006 329.869995 161.440002 329.76001 161.959991 L 325.26001 187.809998 C 325.140015 188.440002 325.47998 188.890015 326.169983 188.890015 L 332.780029 188.890015 C 333.340027 188.890015 333.690002 188.549988 333.799988 187.980011 L 337.5 166.970001 C 338.469971 166.570007 339.719971 166.279999 341.200012 166.279999 C 342.400024 166.279999 343.539978 166.399994 344.51001 166.570007 C 345.130005 166.630005 345.590027 166.339996 345.650024 165.709991 L 346.669983 160.130005 C 346.789978 159.559998 346.5 159.109985 345.869995 158.98999 C 344.219971 158.649994 342.679993 158.480011 341.150024 158.480011 Z M 400.710022 158.480011 C 393.820007 158.480011 389.039978 160.929993 387.840027 166.679993 C 386.590027 172.829987 391.030029 176.190002 396.609985 177.329987 C 398.890015 177.839996 400.880005 178.299988 400.47998 180.070007 C 400.200012 181.380005 398.830017 182.230011 396.099976 182.230011 C 393.419983 182.230011 390.909973 181.429993 388.690002 179.779999 C 388.179993 179.440002 387.72998 179.5 387.330017 180.01001 L 384.080017 184.450012 C 383.73999 184.910004 383.73999 185.420013 384.25 185.820007 C 387.380005 188.380005 391.090027 189.630005 395.809998 189.630005 C 402.929993 189.630005 408 186.839996 409.140015 180.809998 C 410.330017 174.140015 404.869995 171.410004 400.47998 170.440002 C 397.75 169.809998 395.929993 169.299988 396.27002 167.589996 C 396.5 166.170013 397.809998 165.709991 399.909973 165.709991 C 402.309998 165.709991 404.469971 166.230011 406.22998 167.25 C 406.799988 167.540009 407.26001 167.480011 407.599976 166.970001 L 410.960022 162.470001 C 411.359985 161.950012 411.299988 161.440002 410.72998 161.100006 C 407.659973 159.339996 404.640015 158.480011 400.710022 158.480011 Z M 245.579987 159.279999 C 244.950012 159.279999 244.559998 159.619995 244.609985 160.299988 L 247.119995 187.980011 C 247.179993 188.609985 247.570007 188.890015 248.140015 188.890015 L 255.380005 188.890015 C 255.890015 188.890015 256.290009 188.609985 256.459991 188.100006 L 260.5 178.470001 C 261.299988 176.480011 262.839996 172.149994 263.459991 170.100006 L 263.630005 170.100006 C 263.690002 172.089996 263.75 175.850006 263.799988 178.470001 L 264.200012 187.929993 C 264.26001 188.549988 264.600006 188.890015 265.230011 188.890015 L 272.350006 188.890015 C 272.920013 188.890015 273.320007 188.609985 273.540009 188.149994 L 285.72998 160.359985 C 286.070007 159.679993 285.72998 159.279999 284.98999 159.279999 L 278.440002 159.279999 C 277.929993 159.279999 277.529999 159.51001 277.299988 160.019989 L 273.829987 169.470001 C 272.859985 172.149994 271.209991 176.589996 270.410004 179.149994 L 270.179993 179.149994 C 270.23999 176.309998 270.130005 172.609985 270.01001 169.700012 L 269.559998 160.589996 C 269.559998 159.959991 269.220001 159.679993 268.589996 159.679993 L 261.809998 159.679993 C 261.299988 159.679993 260.899994 159.910004 260.670013 160.420013 L 257.029999 169.640015 C 256 172.26001 254.640015 176.25 253.720001 179.149994 L 253.5 179.149994 C 253.5 176.589996 253.440002 172.089996 253.380005 169.589996 L 253.149994 160.25 C 253.149994 159.559998 252.76001 159.279999 252.130005 159.279999 L 245.579987 159.279999 Z M 199.209991 165.709991 C 202.119995 165.709991 203.089996 167.709991 202.690002 169.980011 L 202.399994 171.410004 L 194.089996 171.410004 L 194.369995 169.869995 C 194.890015 167.190002 196.76001 165.709991 199.209991 165.709991 Z M 305.440002 165.940002 C 308.179993 165.940002 309.369995 168.049988 308.919983 170.609985 L 307.609985 177.899994 C 307.150024 180.579987 305.330017 182.170013 302.369995 182.170013 C 299.690002 182.170013 298.5 180.350006 299.01001 177.559998 L 300.320007 170.209991 C 300.77002 167.649994 302.710022 165.940002 305.440002 165.940002 Z"/>
    <g id="logo-group">
        <path id="path62133" fill="#000000" stroke="none" d="M 154.290619 188.876526 C 154.917053 188.876526 155.258789 188.591766 155.372681 187.965271 L 159.131409 166.608856 C 159.985687 166.210205 161.409424 165.925446 162.776245 165.925446 C 165.794586 165.925446 167.047516 167.577026 166.364105 171.164886 L 163.516571 187.794464 C 163.459656 188.420898 163.801331 188.876526 164.427765 188.876526 L 170.977112 188.876526 C 171.603546 188.876526 171.945221 188.53479 172.059174 187.965271 L 174.906647 172.019165 C 176.330444 163.93219 172.457825 158.464966 163.858307 158.464966 C 160.156494 158.464966 155.885223 159.37616 152.297363 160.742981 C 151.784821 160.970764 151.556976 161.3125 151.443085 161.768066 L 146.773163 187.794464 C 146.659271 188.420898 147.000946 188.876526 147.684357 188.876526 Z"/>
        <path id="path62135" fill="#000000" stroke="none" d="M 185.755707 169.406586 L 184.274994 177.664368 C 182.965149 185.067932 188.147614 189.623962 195.608154 189.623962 C 200.562836 189.623962 204.435455 188.257141 207.510742 186.149994 C 208.023285 185.865234 208.080261 185.352692 207.852478 184.783173 L 205.517487 180.39801 C 205.232758 179.771576 204.777161 179.7146 204.207642 180.113251 C 201.929626 181.480072 199.309906 182.391266 196.804108 182.391266 C 193.671814 182.391266 192.304993 180.910553 192.874512 177.892212 L 193.04538 177.094849 L 208.877563 177.094849 C 209.447083 177.094849 209.788757 176.81015 209.902649 176.240631 L 210.870819 170.716431 C 212.408508 162.344696 207.225983 158.472076 199.936401 158.472076 C 193.04538 158.472076 187.122528 161.946045 185.755707 169.406586 Z M 202.385223 171.399841 L 194.070465 171.399841 L 194.355225 169.862152 C 194.867767 167.185486 196.747131 165.704773 199.196014 165.704773 C 202.100464 165.704773 203.068634 167.698029 202.669983 169.976044 Z"/>
        <path id="path62137" fill="#000000" stroke="none" d="M 234.875427 167.181976 C 235.501862 167.181976 235.843597 166.897217 235.957489 166.270721 L 236.868683 161.031281 C 236.982574 160.404846 236.6409 159.94928 235.957489 159.94928 L 231.401459 159.94928 L 231.743134 153.17215 C 231.80011 152.545715 231.458374 152.147064 230.774994 152.147064 L 225.193878 152.147064 C 224.567413 152.147064 224.225708 152.488739 224.111816 153.058258 L 219.840546 177.48996 C 218.359833 185.804718 222.40332 189.620422 228.724792 189.620422 C 229.692963 189.620422 230.774994 189.50647 231.629242 189.335663 C 232.198761 189.278687 232.483521 188.937012 232.597412 188.367493 L 233.508606 183.071075 C 233.679474 182.33075 233.280823 182.04599 232.597412 182.102966 L 231.059723 182.102966 C 228.724792 182.102966 227.813599 180.736145 228.269165 178.17337 L 230.205505 167.181976 Z"/>
        <path id="path62139" fill="#000000" stroke="none" d="M 255.359802 188.876526 C 255.872345 188.876526 256.270996 188.591766 256.441864 188.079224 L 260.485291 178.454559 C 261.282654 176.461304 262.820282 172.133057 263.446716 170.082886 L 263.617584 170.082886 C 263.674561 172.076141 263.731476 175.834869 263.788452 178.454559 L 264.187103 187.908356 C 264.244019 188.53479 264.585754 188.876526 265.212189 188.876526 L 272.330994 188.876526 C 272.900513 188.876526 273.299164 188.591766 273.526947 188.136139 L 285.714355 160.34433 C 286.056091 159.660919 285.714355 159.262268 284.973999 159.262268 L 278.424683 159.262268 C 277.91214 159.262268 277.513489 159.490051 277.285675 160.002655 L 273.811707 169.45639 C 272.843536 172.133057 271.192017 176.575195 270.394714 179.13797 L 270.16687 179.13797 C 270.223846 176.290436 270.109955 172.588684 269.996063 169.684174 L 269.540436 160.572113 C 269.540436 159.945679 269.198761 159.660919 268.572266 159.660919 L 261.795197 159.660919 C 261.282654 159.660919 260.884003 159.888702 260.656158 160.401306 L 257.011322 169.627258 C 255.986237 172.246948 254.619415 176.233521 253.708221 179.13797 L 253.480438 179.13797 C 253.480438 176.575195 253.423462 172.076141 253.366486 169.570282 L 253.138702 160.230438 C 253.138702 159.547028 252.740051 159.262268 252.113617 159.262268 L 245.564331 159.262268 C 244.937836 159.262268 244.539185 159.604004 244.596161 160.287354 L 247.101959 187.965271 C 247.158936 188.591766 247.557587 188.876526 248.127045 188.876526 Z"/>
        <path id="path62141" fill="#000000" stroke="none" d="M 316.243347 178.340668 L 317.553223 171.164886 C 318.749146 164.216949 314.193176 158.464966 306.390869 158.464966 C 298.474792 158.464966 292.893677 162.736237 291.640808 169.627258 L 290.444763 176.689087 C 289.134949 183.921783 293.747864 189.616852 301.379272 189.616852 C 309.750977 189.616852 314.933411 185.516449 316.243347 178.340668 Z M 298.987366 177.543365 L 300.29718 170.196777 C 300.752869 167.634003 302.689087 165.925446 305.422729 165.925446 C 308.156372 165.925446 309.352295 168.032654 308.896729 170.595428 L 307.586853 177.88504 C 307.131287 180.561768 305.308899 182.156372 302.347473 182.156372 C 299.670715 182.156372 298.474792 180.333923 298.987366 177.543365 Z"/>
        <path id="path62143" fill="#000000" stroke="none" d="M 332.758911 188.876526 C 333.328369 188.876526 333.670105 188.53479 333.784058 187.965271 L 337.485779 166.950592 C 338.453918 166.551941 339.706909 166.267181 341.187561 166.267181 C 342.383545 166.267181 343.522583 166.381073 344.490723 166.551941 C 345.117188 166.608856 345.572754 166.324158 345.629761 165.697662 L 346.654846 160.116547 C 346.768677 159.547028 346.484009 159.0914 345.857544 158.977509 C 344.205933 158.635834 342.668335 158.464966 341.130676 158.464966 C 337.542786 158.464966 333.897888 159.319244 330.594849 160.856873 C 330.13916 161.084717 329.854492 161.426392 329.74054 161.938934 L 325.241455 187.794464 C 325.127563 188.420898 325.469299 188.876526 326.15271 188.876526 Z"/>
        <path id="path62145" fill="#000000" stroke="none" d="M 372.339478 159.262268 C 371.826904 159.262268 371.428223 159.37616 371.143555 159.774811 L 363.05658 168.602173 L 366.473572 149.239014 C 366.587524 148.612549 366.245789 148.156952 365.562317 148.156952 L 358.956116 148.156952 C 358.386597 148.156952 358.044861 148.498657 357.93103 149.068176 L 351.040039 187.794464 C 350.983093 188.420898 351.324707 188.876526 351.951294 188.876526 L 358.557495 188.876526 C 359.127014 188.876526 359.525635 188.53479 359.582581 187.965271 L 360.949402 180.3909 L 363.455261 177.998993 L 367.72644 188.079224 C 367.897339 188.648682 368.295959 188.876526 368.865479 188.876526 L 376.098206 188.876526 C 376.838501 188.876526 377.123291 188.420898 376.838501 187.737488 L 369.491943 171.905273 L 380.654236 160.458221 C 381.223755 159.831787 380.99585 159.262268 380.141663 159.262268 Z"/>
        <path id="path62147" fill="#000000" stroke="none" d="M 409.125854 180.796661 C 410.321838 174.133423 404.854553 171.399841 400.46936 170.431671 C 397.735718 169.805237 395.91333 169.292694 396.255066 167.584137 C 396.482849 166.1604 397.792786 165.704773 399.899841 165.704773 C 402.291748 165.704773 404.455872 166.217316 406.221375 167.242462 C 406.790894 167.527222 407.24646 167.470245 407.588196 166.957703 L 410.948242 162.458588 C 411.346924 161.946045 411.289978 161.433502 410.720459 161.091827 C 407.645081 159.326355 404.62677 158.472076 400.697144 158.472076 C 393.806152 158.472076 389.022339 160.920959 387.826416 166.672943 C 386.573486 172.823578 391.015625 176.183655 396.596802 177.322693 C 398.874756 177.835236 400.868042 178.290863 400.46936 180.056274 C 400.184692 181.36618 398.817871 182.220398 396.084229 182.220398 C 393.407532 182.220398 390.901733 181.423096 388.680725 179.771576 C 388.168091 179.42984 387.712524 179.486816 387.313904 179.999359 L 384.067688 184.441498 C 383.725952 184.897064 383.725952 185.409668 384.238525 185.808319 C 387.370789 188.371033 391.072632 189.623962 395.7995 189.623962 C 402.918335 189.623962 407.986816 186.833405 409.125854 180.796661 Z"/>
        <path id="path20" fill="#000000" stroke="none" d="M 61.764038 71.095917 L 70.925568 57.202026 C 63.806763 52.39679 57.987122 49.49588 48.038605 49.49588 C 39.471283 49.49588 25.22641 54.220825 25.22641 68.729095 C 25.22641 90.411224 53.498718 87.47113 53.498718 94.089844 C 53.498718 95.727783 51.837463 97.608826 48.038269 97.608826 C 44.238983 97.608826 35.751953 94.615204 32.142151 90.6315 L 22.980606 103.676025 C 22.980606 103.676025 32.182007 112.815521 48.303955 112.815521 C 64.425232 112.815521 72.429596 103.359619 72.429596 93.372253 C 72.429596 72.576477 43.731934 74.598236 43.731934 67.879822 C 43.731934 66.950714 44.127045 64.785675 47.918304 64.785675 C 51.709564 64.785675 55.434174 65.849915 61.751556 71.095612 Z"/>
        <path id="path23" fill="#000000" stroke="none" d="M 123.964508 50.77179 L 123.964508 81.761688 C 123.964508 88.417053 118.549591 93.83197 111.894257 93.83197 C 105.238892 93.83197 99.823975 88.417053 99.823975 81.761688 L 99.823975 50.7771 L 80.839935 50.7771 L 80.839935 81.766998 C 80.839935 98.890045 94.770874 112.821014 111.893921 112.821014 C 129.016907 112.821014 142.947845 98.890045 142.947845 81.766998 L 142.947845 50.78244 Z"/>
        <path id="path26" fill="#000000" stroke="none" d="M 173.066437 111.530701 L 154.082397 111.530701 L 154.082397 41.77002 C 154.082397 28.857819 164.587982 18.352753 177.499664 18.352753 C 182.367004 18.352753 187.037079 19.834167 191.004211 22.637726 L 180.049469 38.141937 C 179.52951 37.774567 178.664978 37.336365 177.499512 37.336365 C 175.054901 37.336365 173.065399 39.325867 173.065399 41.770477 L 173.065399 111.531158 Z"/>
        <path id="rect28" fill="#253298" stroke="none" d="M 154.077057 51.216705 L 184.776886 51.216705 L 184.776886 66.748688 L 154.077057 66.748688 Z"/>
        <path id="rect30" fill="#12194c" stroke="none" d="M 154.077057 51.216705 L 173.061127 51.216705 L 173.061127 66.748688 L 154.077057 66.748688 Z"/>
        <path id="path33" fill="#000000" stroke="none" d="M 211.863922 111.530701 L 192.879822 111.530701 L 192.879822 41.77002 C 192.879822 28.857819 203.385437 18.352753 216.29715 18.352753 C 221.164459 18.352753 225.834595 19.834167 229.801697 22.637726 L 218.846954 38.141937 C 218.327026 37.774567 217.462433 37.336365 216.296997 37.336365 C 213.852356 37.336365 211.862854 39.325867 211.862854 41.770477 L 211.862854 111.531158 Z"/>
        <path id="rect35" fill="#253298" stroke="none" d="M 192.874512 51.216705 L 223.574341 51.216705 L 223.574341 66.748688 L 192.874512 66.748688 Z"/>
        <path id="rect37" fill="#12194c" stroke="none" d="M 192.874512 51.216705 L 211.858551 51.216705 L 211.858551 66.748688 L 192.874512 66.748688 Z"/>
        <path id="rect40" fill="#000000" stroke="none" d="M 231.547394 50.896362 L 250.531464 50.896362 L 250.531464 111.628632 L 231.547394 111.628632 Z"/>
        <path id="circle42" fill="#253298" stroke="none" d="M 251.713867 32.476471 C 251.713867 38.365417 246.939941 43.139343 241.050995 43.139343 C 235.162048 43.139343 230.388123 38.365417 230.388123 32.476471 C 230.388123 26.587524 235.162048 21.813568 241.050995 21.813568 C 246.939941 21.813568 251.713867 26.587524 251.713867 32.476471 Z"/>
        <path id="path45" fill="#000000" stroke="none" d="M 291.701294 112.883301 C 274.223541 112.883301 260.004791 98.664215 260.004791 81.186859 C 260.004791 63.709106 274.223877 49.490387 291.701294 49.490387 C 302.180725 49.490387 311.968506 54.66095 317.885925 63.321136 L 302.210693 74.029755 C 299.834412 70.551178 295.905029 68.474121 291.700867 68.474121 C 284.690674 68.474121 278.987579 74.177338 278.987579 81.187378 C 278.987579 88.197632 284.690796 93.900665 291.700867 93.900665 C 295.761658 93.900665 299.483704 92.028259 301.912292 88.763702 L 317.142639 100.096008 C 311.184143 108.103943 301.672913 112.884155 291.700012 112.884155 Z"/>
        <path id="rect48" fill="#000000" stroke="none" d="M 326.405457 50.896362 L 345.389465 50.896362 L 345.389465 111.628632 L 326.405457 111.628632 Z"/>
        <path id="circle50" fill="#253298" stroke="none" d="M 346.571899 32.476471 C 346.571899 38.365417 341.797913 43.139343 335.908997 43.139343 C 330.02002 43.139343 325.246094 38.365417 325.246094 32.476471 C 325.246094 26.587524 330.02002 21.813568 335.908997 21.813568 C 341.797913 21.813568 346.571899 26.587524 346.571899 32.476471 Z"/>
        <path id="path53" fill="#000000" stroke="none" d="M 399.284058 81.169037 L 399.284058 80.996582 C 399.266357 79.598694 398.990784 78.200867 398.507507 76.854706 C 397.748108 74.783813 396.522766 73.023529 394.952332 71.660126 C 391.587158 68.709015 386.720398 67.604523 382.216187 69.243988 C 377.69458 70.900787 374.6745 74.852692 373.98407 79.288086 L 373.98407 79.305847 C 373.690796 81.35968 373.863281 83.4823 374.622681 85.553162 C 375.347534 87.572205 376.572815 89.297974 378.074219 90.661438 C 381.456665 93.68158 386.358032 94.803345 390.914063 93.129333 C 394.641785 91.783203 397.489258 88.814819 398.680115 85.018188 L 416.801025 90.730469 C 413.798096 100.222321 406.722534 107.574127 397.404114 110.974548 C 382.907532 116.255493 366.996033 110.249756 359.350525 97.478912 C 358.349548 95.770416 357.486633 93.958344 356.779175 92.042816 C 356.071594 90.092621 355.571167 88.10791 355.243225 86.123383 C 352.930725 71.454224 361.248962 56.681824 375.7276 51.41745 C 390.172363 46.153778 406.050049 52.107819 413.711792 64.844055 C 414.471069 66.121094 415.17865 67.484375 415.765503 68.91687 C 415.972595 69.400146 416.162354 69.883362 416.335022 70.366577 C 416.507629 70.849731 416.662903 71.315765 416.818176 71.798889 C 417.266907 73.248627 417.629395 74.715515 417.853699 76.182465 L 417.698364 76.234283 L 399.14679 82.999298 C 399.233154 82.395294 399.284851 81.791351 399.284851 81.169891 Z"/>
        <path id="path55" fill="#253298" stroke="none" d="M 417.704041 76.221466 L 417.704041 76.239288 L 399.152405 82.98703 L 378.08075 90.649475 L 359.356506 97.466461 C 358.35553 95.757965 357.492615 93.945862 356.785278 92.030365 C 356.077576 90.0802 355.577148 88.095459 355.249329 86.110901 L 373.991272 79.294128 L 373.991272 79.276306 L 394.959717 71.648376 L 413.546875 64.883209 C 414.392517 66.143097 415.151917 67.489227 415.773132 68.904266 C 415.980164 69.387543 416.170044 69.870697 416.342651 70.353973 C 416.515259 70.837128 416.670593 71.303131 416.825806 71.786285 C 417.23999 73.235931 417.550781 74.720123 417.705994 76.221466 Z"/>
        <path id="path57" fill="#12194c" stroke="none" d="M 394.959412 71.647614 C 396.519897 73.008148 397.747131 74.76532 398.502625 76.841003 C 398.992554 78.187012 399.259766 79.577301 399.276489 80.985413 L 399.275269 80.985626 C 399.276062 81.043945 399.276489 81.102325 399.276489 81.160889 C 399.276489 81.778259 399.232178 82.385406 399.147217 82.979187 L 417.527954 76.288757 L 417.688293 76.230438 C 417.482422 74.2117 417.031006 72.245483 416.340454 70.348145 C 415.62616 68.385864 414.675171 66.56488 413.535278 64.886261 Z"/>
        <path id="path59" fill="#12194c" stroke="none" d="M 374.617432 85.547119 C 373.862 83.471283 373.688721 81.330658 373.993408 79.29129 L 355.260315 86.10965 C 355.572571 88.096008 356.066162 90.080719 356.779175 92.039612 C 357.479797 93.964539 358.362732 95.769867 359.37793 97.466644 L 378.077148 90.660736 C 376.571411 89.298645 375.356018 87.574005 374.618103 85.546906 Z"/>
        <path id="path62" fill="#000000" stroke="none" d="M 456.768494 49.490387 C 439.645386 49.490387 425.714417 63.421356 425.714417 80.544403 L 425.714417 111.534302 L 444.698486 111.534302 L 444.698486 80.544403 C 444.698486 73.888977 450.113403 68.474121 456.768799 68.474121 C 463.424072 68.474121 468.838989 73.888977 468.838989 80.544403 L 468.838989 111.534302 L 487.823181 111.534302 L 487.823181 80.544403 C 487.823181 63.421356 473.892212 49.490387 456.769104 49.490387 Z"/>
        <path id="rect65" fill="#253298" stroke="none" d="M 498.057434 51.270081 L 531.095703 51.270081 L 531.095703 66.802063 L 498.057434 66.802063 Z"/>
        <path id="path67" fill="#000000" stroke="none" d="M 521.478333 112.954498 C 508.565308 112.954498 498.061035 102.448914 498.061035 89.53717 L 498.061035 29.632477 L 517.045044 29.632477 L 517.045044 89.535431 C 517.045044 91.980011 519.033752 93.969543 521.479187 93.969543 C 522.643799 93.969543 523.508423 93.532227 524.027405 93.164795 L 534.985352 108.666504 C 531.018066 111.470978 526.348083 112.953094 521.479004 112.953094 Z"/>
        <path id="rect69" fill="#12194c" stroke="none" d="M 498.057434 51.270081 L 517.041443 51.270081 L 517.041443 66.802063 L 498.057434 66.802063 Z"/>
    </g>
</svg>
